<?xml version="1.0" encoding="UTF-8" standalone="no"?>
<svg
   xmlns:dc="http://purl.org/dc/elements/1.1/"
   xmlns:cc="http://creativecommons.org/ns#"
   xmlns:rdf="http://www.w3.org/1999/02/22-rdf-syntax-ns#"
   xmlns:svg="http://www.w3.org/2000/svg"
   xmlns="http://www.w3.org/2000/svg"
   viewBox="0 0 156 149.61333"
   height="149.61333"
   width="156"
   xml:space="preserve"
   id="svg951"
   version="1.1"><metadata
     id="metadata957"><rdf:RDF><cc:Work
         rdf:about=""><dc:format>image/svg+xml</dc:format><dc:type
           rdf:resource="http://purl.org/dc/dcmitype/StillImage" /><dc:title></dc:title></cc:Work></rdf:RDF></metadata><defs
     id="defs955" /><g
     transform="matrix(1.3333333,0,0,-1.3333333,0,149.61333)"
     id="g959"><g
       transform="scale(0.1)"
       id="g961"><path
         id="path963"
         style="fill:#231f20;fill-opacity:1;fill-rule:nonzero;stroke:none"
         d="M 56.2656,609.605 V 541.496 H 34.7695 v 68.109 H 10.4063 v 18.122 h 68.2304 l 3,-18.122 H 56.2656" /><path
         id="path965"
         style="fill:#231f20;fill-opacity:1;fill-rule:nonzero;stroke:none"
         d="m 145.551,541.496 v 34.992 H 115.68 V 541.496 H 94.3125 v 86.231 H 115.68 v -32.618 h 29.871 v 32.618 h 21.496 v -86.231 h -21.496" /><path
         id="path967"
         style="fill:#231f20;fill-opacity:1;fill-rule:nonzero;stroke:none"
         d="m 186.945,541.496 v 86.231 h 53.743 V 610.48 h -32.743 v -16.246 h 24.989 l 2.754,-17.121 h -27.743 v -18.242 h 33.868 v -17.375 h -54.868" /><path
         id="path969"
         style="fill:#231f20;fill-opacity:1;fill-rule:nonzero;stroke:none"
         d="m 324.566,539.996 c -25.746,0 -41.371,17.246 -41.371,44.488 0,26.743 16.379,44.743 42.368,44.743 9.128,0 16.503,-2 22.742,-5.625 l -2.996,-19.243 c -5.118,3.996 -11.125,6.996 -18.614,6.996 -13.5,0 -22.121,-10.25 -22.121,-26.742 0,-16.75 9.121,-26.746 22.617,-26.746 6.993,0 13.243,2.625 19.622,6.621 l 2.742,-17.871 c -6.864,-3.996 -14.864,-6.621 -24.989,-6.621" /><path
         id="path971"
         style="fill:#231f20;fill-opacity:1;fill-rule:nonzero;stroke:none"
         d="m 365.082,541.496 v 86.231 H 418.82 V 610.48 h -32.742 v -16.246 h 24.992 l 2.75,-17.121 h -27.742 v -18.242 h 33.867 v -17.375 h -54.863" /><path
         id="path973"
         style="fill:#231f20;fill-opacity:1;fill-rule:nonzero;stroke:none"
         d="m 472.57,539.996 c -25.742,0 -41.367,17.246 -41.367,44.488 0,26.743 16.379,44.743 42.367,44.743 9.129,0 16.5,-2 22.743,-5.625 l -2.997,-19.243 c -5.121,3.996 -11.125,6.996 -18.617,6.996 -13.496,0 -22.117,-10.25 -22.117,-26.742 0,-16.75 9.121,-26.746 22.617,-26.746 6.992,0 13.242,2.625 19.621,6.621 l 2.743,-17.871 c -6.868,-3.996 -14.864,-6.621 -24.993,-6.621" /><path
         id="path975"
         style="fill:#231f20;fill-opacity:1;fill-rule:nonzero;stroke:none"
         d="m 513.285,541.496 h 21.375 v 86.2305 h -21.375 z" /><path
         id="path977"
         style="fill:#231f20;fill-opacity:1;fill-rule:nonzero;stroke:none"
         d="m 554.672,541.496 v 86.231 h 21.367 v -67.735 h 26.492 l 2.883,-18.496 h -50.742" /><path
         id="path979"
         style="fill:#231f20;fill-opacity:1;fill-rule:nonzero;stroke:none"
         d="m 682.406,539.871 c -27.363,0 -42.488,17.996 -42.488,44.613 0,26.743 16.375,44.864 42.984,44.864 10.625,0 19.504,-2.496 26.379,-6.371 l -2.879,-18.618 c -6.496,4.121 -14.125,7.371 -22.992,7.371 -14.871,0 -22.117,-11 -22.117,-27.117 0,-16.246 7.488,-27.617 22.363,-27.617 4.746,0 8.125,0.996 11.621,2.746 v 15.371 h -14.992 l -2.5,15.871 h 36.117 v -41.988 c -8.996,-5.875 -19.621,-9.125 -31.496,-9.125" /><path
         id="path981"
         style="fill:#231f20;fill-opacity:1;fill-rule:nonzero;stroke:none"
         d="m 727.16,541.496 h 20.3711 v 21.4961 H 727.16 Z" /><path
         id="path983"
         style="fill:#231f20;fill-opacity:1;fill-rule:nonzero;stroke:none"
         d="m 810.402,540.496 c -11.621,0 -21.367,2.5 -30.117,6.5 l 3.125,18.246 c 8.867,-4.75 18.742,-8 27.367,-8 6.121,0 10.371,2.625 10.371,7.75 0,4.875 -2.492,7.121 -14.621,11.742 -17.246,6.629 -24.746,12.254 -24.746,26.496 0,16.622 12.996,25.493 29.5,25.493 11.242,0 18.489,-2.121 25.989,-5.746 l -3.243,-17.993 c -7.754,4.496 -15.879,6.996 -22.5,6.996 -6.496,0 -9.621,-2.75 -9.621,-6.75 0,-4.375 2.375,-6.496 13.117,-10.625 18.879,-6.867 26.25,-13.367 26.25,-27.117 0,-18.746 -13.75,-26.992 -30.871,-26.992" /><path
         id="path985"
         style="fill:#231f20;fill-opacity:1;fill-rule:nonzero;stroke:none"
         d="m 908.09,541.496 v 34.992 h -29.871 v -34.992 h -21.367 v 86.231 h 21.367 v -32.618 h 29.871 v 32.618 h 21.496 V 541.496 H 908.09" /><path
         id="path987"
         style="fill:#231f20;fill-opacity:1;fill-rule:nonzero;stroke:none"
         d="m 949.484,541.496 v 86.231 h 53.746 V 610.48 h -32.746 v -16.246 h 24.989 l 2.754,-17.121 h -27.743 v -18.242 h 33.866 v -17.375 h -54.866" /><path
         id="path989"
         style="fill:#231f20;fill-opacity:1;fill-rule:nonzero;stroke:none"
         d="m 1047.53,611.605 h -5.37 v -25.367 h 5 c 9.49,0 14.75,4.121 14.75,12.992 0,8.247 -4.87,12.375 -14.38,12.375 z m 0.38,-41.492 h -5.5 v -28.617 h -21.37 v 86.231 h 27.74 c 21,0 33.87,-9.375 33.87,-28.122 0,-19.496 -13.87,-29.492 -34.74,-29.492" /><path
         id="path991"
         style="fill:#231f20;fill-opacity:1;fill-rule:nonzero;stroke:none"
         d="m 1123.32,540.496 c -11.62,0 -21.36,2.5 -30.11,6.5 l 3.12,18.246 c 8.87,-4.75 18.74,-8 27.37,-8 6.12,0 10.37,2.625 10.37,7.75 0,4.875 -2.49,7.121 -14.62,11.742 -17.25,6.629 -24.75,12.254 -24.75,26.496 0,16.622 13,25.493 29.5,25.493 11.24,0 18.49,-2.121 25.99,-5.746 l -3.24,-17.993 c -7.76,4.496 -15.88,6.996 -22.5,6.996 -6.5,0 -9.62,-2.75 -9.62,-6.75 0,-4.375 2.37,-6.496 13.11,-10.625 18.88,-6.867 26.25,-13.367 26.25,-27.117 0,-18.746 -13.75,-26.992 -30.87,-26.992" /><path
         id="path993"
         style="fill:#231f20;fill-opacity:1;fill-rule:nonzero;stroke:none"
         d="m 260.16,360 c -25.742,0 -41.367,17.242 -41.367,44.484 0,26.743 16.379,44.743 42.363,44.743 9.129,0 16.504,-2 22.746,-5.625 l -3,-19.243 c -5.117,3.996 -11.125,6.996 -18.613,6.996 -13.496,0 -22.117,-10.25 -22.117,-26.742 0,-16.75 9.117,-26.746 22.613,-26.746 6.992,0 13.242,2.625 19.621,6.621 l 2.746,-17.871 C 278.285,362.621 270.285,360 260.16,360" /><path
         id="path995"
         style="fill:#231f20;fill-opacity:1;fill-rule:nonzero;stroke:none"
         d="m 300.68,361.496 v 86.231 h 53.738 V 430.48 h -32.742 v -16.246 h 24.988 l 2.754,-17.121 h -27.742 v -18.242 h 33.867 V 361.496 H 300.68" /><path
         id="path997"
         style="fill:#231f20;fill-opacity:1;fill-rule:nonzero;stroke:none"
         d="m 426.098,361.496 -33.993,51.613 V 361.496 H 372.23 v 86.231 h 20.743 l 31.75,-48.239 v 48.239 h 19.871 v -86.231 h -18.496" /><path
         id="path999"
         style="fill:#231f20;fill-opacity:1;fill-rule:nonzero;stroke:none"
         d="m 503.82,429.605 v -68.109 h -21.492 v 68.109 h -24.363 v 18.122 h 68.23 l 3,-18.122 H 503.82" /><path
         id="path1001"
         style="fill:#231f20;fill-opacity:1;fill-rule:nonzero;stroke:none"
         d="m 541.867,361.496 v 86.231 h 53.742 V 430.48 h -32.746 v -16.246 h 24.992 l 2.754,-17.121 h -27.746 v -18.242 h 33.871 v -17.375 h -54.867" /><path
         id="path1003"
         style="fill:#231f20;fill-opacity:1;fill-rule:nonzero;stroke:none"
         d="m 641.422,431.605 h -6.875 v -25.117 h 6.621 c 9.246,0 14.5,4.496 14.5,12.742 0,8 -5,12.375 -14.246,12.375 z m 17.488,-70.98 -18.867,30.492 h -5.371 v -29.621 h -21.25 v 86.231 h 30.117 c 20.867,0 33.113,-9.497 33.113,-27.247 0,-11.996 -5.996,-20.117 -16.238,-24.492 l 21.121,-31.742 -22.625,-3.621" /><path
         id="path1005"
         style="fill:#231f20;fill-opacity:1;fill-rule:nonzero;stroke:none"
         d="m 744.047,429.855 v -17.621 h 22.488 l 3,-17.871 h -25.488 v -32.867 h -21.25 v 86.231 h 51.609 v -17.872 h -30.359" /><path
         id="path1007"
         style="fill:#231f20;fill-opacity:1;fill-rule:nonzero;stroke:none"
         d="m 824.691,432.605 c -12.363,0 -19.738,-10.875 -19.738,-27.992 0,-17.125 7.375,-27.996 19.738,-27.996 12.5,0 19.747,10.871 19.747,27.996 0,17.117 -7.247,27.992 -19.747,27.992 z m -0.117,-72.734 c -24.746,0 -40.996,17.996 -40.996,44.613 0,26.743 16.25,44.864 41.238,44.864 25,0 41.118,-17.993 41.118,-44.614 0,-26.617 -16.243,-44.863 -41.36,-44.863" /><path
         id="path1009"
         style="fill:#231f20;fill-opacity:1;fill-rule:nonzero;stroke:none"
         d="m 910.094,431.605 h -6.875 v -25.117 h 6.621 c 9.246,0 14.5,4.496 14.5,12.742 0,8 -5,12.375 -14.246,12.375 z m 17.488,-70.98 -18.867,30.492 h -5.371 v -29.621 h -21.25 v 86.231 h 30.117 c 20.867,0 33.113,-9.497 33.113,-27.247 0,-11.996 -5.996,-20.117 -16.238,-24.492 l 21.125,-31.742 -22.629,-3.621" /><path
         id="path1011"
         style="fill:#231f20;fill-opacity:1;fill-rule:nonzero;stroke:none"
         d="m 101.098,181.496 v 34.992 H 71.2266 V 181.496 H 49.8594 v 86.231 h 21.3672 v -32.618 h 29.8714 v 32.618 h 21.496 v -86.231 h -21.496" /><path
         id="path1013"
         style="fill:#231f20;fill-opacity:1;fill-rule:nonzero;stroke:none"
         d="m 142.484,181.496 v 86.231 h 53.743 V 250.48 H 163.48 v -16.246 h 24.993 l 2.754,-17.121 H 163.48 v -18.242 h 33.868 v -17.375 h -54.864" /><path
         id="path1015"
         style="fill:#231f20;fill-opacity:1;fill-rule:nonzero;stroke:none"
         d="m 239.965,216.109 h 19.363 l -9.617,29.996 z m -0.879,51.989 h 23.496 l 29.988,-83.981 -21.621,-3.492 -6.363,18.742 H 234.84 l -5.754,-17.871 H 208.09 l 30.996,86.602" /><path
         id="path1017"
         style="fill:#231f20;fill-opacity:1;fill-rule:nonzero;stroke:none"
         d="m 305.219,181.496 v 86.231 h 21.367 v -67.735 h 26.492 l 2.883,-18.496 h -50.742" /><path
         id="path1019"
         style="fill:#231f20;fill-opacity:1;fill-rule:nonzero;stroke:none"
         d="m 400.102,249.605 v -68.109 h -21.493 v 68.109 h -24.367 v 18.122 h 68.235 l 2.996,-18.122 h -25.371" /><path
         id="path1021"
         style="fill:#231f20;fill-opacity:1;fill-rule:nonzero;stroke:none"
         d="m 489.391,181.496 v 34.992 h -29.875 v -34.992 h -21.368 v 86.231 h 21.368 v -32.618 h 29.875 v 32.618 h 21.492 v -86.231 h -21.492" /><path
         id="path1023"
         style="fill:#231f20;fill-opacity:1;fill-rule:nonzero;stroke:none"
         d="m 585.512,180.496 c -11.621,0 -21.367,2.5 -30.117,6.5 l 3.125,18.246 c 8.867,-4.75 18.742,-8 27.363,-8 6.125,0 10.371,2.625 10.371,7.75 0,4.875 -2.488,7.121 -14.617,11.742 -17.246,6.629 -24.746,12.254 -24.746,26.496 0,16.622 12.996,25.493 29.5,25.493 11.242,0 18.488,-2.121 25.988,-5.746 l -3.242,-17.993 c -7.754,4.496 -15.879,6.996 -22.5,6.996 -6.496,0 -9.621,-2.75 -9.621,-6.75 0,-4.375 2.375,-6.496 13.117,-10.625 18.875,-6.867 26.25,-13.367 26.25,-27.117 0,-18.746 -13.75,-26.992 -30.871,-26.992" /><path
         id="path1025"
         style="fill:#231f20;fill-opacity:1;fill-rule:nonzero;stroke:none"
         d="m 631.969,181.496 v 86.231 h 53.738 V 250.48 h -32.742 v -16.246 h 24.988 l 2.754,-17.121 h -27.742 v -18.242 h 33.863 v -17.375 h -54.859" /><path
         id="path1027"
         style="fill:#231f20;fill-opacity:1;fill-rule:nonzero;stroke:none"
         d="m 731.52,251.605 h -6.875 v -25.117 h 6.621 c 9.246,0 14.5,4.496 14.5,12.742 0,8 -5,12.375 -14.246,12.375 z m 17.488,-70.98 -18.867,30.492 h -5.371 v -29.621 h -21.25 v 86.231 h 30.117 c 20.871,0 33.117,-9.497 33.117,-27.247 0,-11.996 -5.996,-20.117 -16.242,-24.492 l 21.125,-31.742 -22.629,-3.621" /><path
         id="path1029"
         style="fill:#231f20;fill-opacity:1;fill-rule:nonzero;stroke:none"
         d="m 828.18,181 h -23 l -29.746,84.102 22.871,3.5 19.621,-60.489 18.621,59.614 h 22.246 L 828.18,181" /><path
         id="path1031"
         style="fill:#231f20;fill-opacity:1;fill-rule:nonzero;stroke:none"
         d="m 871.586,181.496 h 21.3789 v 86.2305 H 871.586 Z" /><path
         id="path1033"
         style="fill:#231f20;fill-opacity:1;fill-rule:nonzero;stroke:none"
         d="m 950.695,180 c -25.742,0 -41.367,17.242 -41.367,44.484 0,26.743 16.379,44.743 42.363,44.743 9.133,0 16.504,-2 22.747,-5.625 l -2.997,-19.243 c -5.121,3.996 -11.125,6.996 -18.617,6.996 -13.496,0 -22.117,-10.25 -22.117,-26.742 0,-16.75 9.121,-26.746 22.617,-26.746 6.992,0 13.242,2.625 19.617,6.621 l 2.747,-17.871 C 968.82,182.621 960.824,180 950.695,180" /><path
         id="path1035"
         style="fill:#231f20;fill-opacity:1;fill-rule:nonzero;stroke:none"
         d="m 991.215,181.496 v 86.231 h 53.745 V 250.48 h -32.75 v -16.246 h 24.99 l 2.76,-17.121 h -27.75 v -18.242 h 33.87 v -17.375 h -54.865" /><path
         id="path1037"
         style="fill:#231f20;fill-opacity:1;fill-rule:nonzero;stroke:none"
         d="m 1088.64,180.496 c -11.62,0 -21.37,2.5 -30.12,6.5 l 3.12,18.246 c 8.87,-4.75 18.74,-8 27.37,-8 6.12,0 10.37,2.625 10.37,7.75 0,4.875 -2.49,7.121 -14.62,11.742 -17.25,6.629 -24.75,12.254 -24.75,26.496 0,16.622 13,25.493 29.51,25.493 11.24,0 18.48,-2.121 25.98,-5.746 l -3.24,-17.993 c -7.75,4.496 -15.88,6.996 -22.5,6.996 -6.49,0 -9.62,-2.75 -9.62,-6.75 0,-4.375 2.37,-6.496 13.12,-10.625 18.87,-6.867 26.25,-13.367 26.25,-27.117 0,-18.746 -13.75,-26.992 -30.87,-26.992" /><path
         id="path1039"
         style="fill:#231f20;fill-opacity:1;fill-rule:nonzero;stroke:none"
         d="m 301.742,71.6016 h -6.875 V 46.4883 h 6.621 c 9.246,0 14.5,4.4922 14.5,12.7422 0,8 -5,12.3711 -14.246,12.3711 z M 319.234,0.621094 300.363,31.1211 h -5.371 V 1.5 h -21.25 v 86.2305 h 30.117 c 20.871,0 33.118,-9.5 33.118,-27.25 0,-12 -5.997,-20.1211 -16.239,-24.4922 L 341.852,4.25 319.234,0.621094" /><path
         id="path1041"
         style="fill:#231f20;fill-opacity:1;fill-rule:nonzero;stroke:none"
         d="m 354.488,1.5 v 86.2305 h 53.739 v -17.25 H 375.484 V 54.2383 h 24.989 l 2.754,-17.1289 H 375.484 V 18.8711 h 33.868 V 1.5 h -54.864" /><path
         id="path1043"
         style="fill:#231f20;fill-opacity:1;fill-rule:nonzero;stroke:none"
         d="M 451.906,0.5 C 440.285,0.5 430.543,3 421.793,7 l 3.125,18.2383 c 8.863,-4.75 18.738,-8 27.359,-8 6.125,0 10.375,2.6328 10.375,7.75 0,4.8828 -2.492,7.1211 -14.621,11.75 -17.246,6.6211 -24.746,12.25 -24.746,26.4922 0,16.6211 12.996,25.4883 29.5,25.4883 11.242,0 18.488,-2.1172 25.988,-5.7383 l -3.242,-18 c -7.754,4.5 -15.879,7 -22.5,7 -6.496,0 -9.621,-2.75 -9.621,-6.75 0,-4.3711 2.375,-6.5 13.117,-10.6211 18.875,-6.8711 26.25,-13.3711 26.25,-27.1211 C 482.777,8.73828 469.027,0.5 451.906,0.5" /><path
         id="path1045"
         style="fill:#231f20;fill-opacity:1;fill-rule:nonzero;stroke:none"
         d="m 498.355,1.5 v 86.2305 h 53.739 v -17.25 H 519.352 V 54.2383 h 24.988 l 2.754,-17.1289 H 519.352 V 18.8711 h 33.867 V 1.5 h -54.864" /><path
         id="path1047"
         style="fill:#231f20;fill-opacity:1;fill-rule:nonzero;stroke:none"
         d="m 595.836,36.1094 h 19.363 l -9.621,30 z m -0.883,51.9922 h 23.496 L 648.441,4.12109 626.82,0.621094 620.453,19.3711 H 590.707 L 584.953,1.5 h -20.992 l 30.992,86.6016" /><path
         id="path1049"
         style="fill:#231f20;fill-opacity:1;fill-rule:nonzero;stroke:none"
         d="m 689.086,71.6016 h -6.875 V 46.4883 h 6.621 c 9.246,0 14.504,4.4922 14.504,12.7422 0,8 -5,12.3711 -14.25,12.3711 z M 706.574,0.621094 687.711,31.1211 H 682.34 V 1.5 h -21.25 v 86.2305 h 30.113 c 20.871,0 33.117,-9.5 33.117,-27.25 0,-12 -5.996,-20.1211 -16.242,-24.4922 L 729.191,4.25 706.574,0.621094" /><path
         id="path1051"
         style="fill:#231f20;fill-opacity:1;fill-rule:nonzero;stroke:none"
         d="m 778.375,0 c -25.742,0 -41.367,17.2383 -41.367,44.4883 0,26.7422 16.375,44.7422 42.359,44.7422 9.133,0 16.508,-2.0117 22.746,-5.6289 l -3,-19.2422 c -5.113,4 -11.121,7 -18.609,7 -13.496,0 -22.121,-10.25 -22.121,-26.75 0,-16.75 9.121,-26.7383 22.617,-26.7383 6.992,0 13.242,2.6172 19.617,6.6172 L 803.363,6.62109 C 796.5,2.62109 788.5,0 778.375,0" /><path
         id="path1053"
         style="fill:#231f20;fill-opacity:1;fill-rule:nonzero;stroke:none"
         d="M 870.133,1.5 V 36.4883 H 840.258 V 1.5 h -21.367 v 86.2305 h 21.367 V 55.1094 h 29.875 v 32.6211 h 21.492 V 1.5 h -21.492" /><path
         id="path1055"
         style="fill:#231f20;fill-opacity:1;fill-rule:nonzero;stroke:none"
         d="m 0,730.316 h 1170 v 4.00391 H 0 Z" /><path
         id="path1057"
         style="fill:#66a6d8;fill-opacity:1;fill-rule:nonzero;stroke:none"
         d="m 119.168,1057.9 c 0.539,-0.53 0.863,-0.45 0.863,-0.45 39.528,1.53 62.168,-13.5 64.094,-19.64 l 15.797,0.28 4.91,10.7 c 0.301,0.87 0.145,2.17 -0.148,2.52 -4.762,5.28 -44.551,16.65 -92.551,16.65 -51.215,0 -83.6955,-10.12 -90.5471,-15.19 0,0 -1.6211,-0.98 -1.6836,-2.48 -0.0234,-0.7 0.9766,-2.63 0.9766,-2.63 l 1.3906,-3.01 c 0.4297,-0.9 1.0391,-0.82 2.086,-0.22 0,0 0.9258,0.3 1.1211,0.91 0.1836,0.6 -0.4024,1.66 -0.4024,1.66 -1.0312,2.09 0.3321,2.36 0.4141,2.4 l 2.9297,1.33 c 1.3906,0.4 1.5586,-0.35 2.0351,-1.45 0,0 0.5274,-1.53 0.9141,-1.77 0.7383,-0.45 3.0742,0.88 10.0469,2.58 0.4765,0.09 0.7343,0.14 1.6679,0.51 0.6641,0.26 0.0703,2.62 0.0703,2.62 -0.2539,1.15 -0.7851,2.34 1.7579,2.74 l 4.3476,0.88 c 2.0352,0.53 2.2227,-0.53 2.4844,-1.7 0,0 0.1328,-1.75 0.582,-2.49 0.5664,-0.93 1.6211,0.53 14.9297,1.96 0,0 1.9414,0.06 2.3242,0.73 0.4024,0.7 0.0703,2.26 0.0703,2.26 -0.1328,1.61 -0.7851,2.8 2.2852,2.99 l 5.8281,0.54 c 4.3633,0.7 3.6406,-0.77 3.7891,-2.37 0,0 0.1445,-1.74 0.4765,-2.05 0.3204,-0.32 1.7032,-0.28 1.7032,-0.28 7.457,0.77 11.6484,0.72 19.5585,1.06 0,0 1.117,0.01 1.524,0.47 0.41,0.45 0.292,0.96 0.292,0.96 0,0.88 -0.191,2.31 0.387,2.92 0.664,0.68 1.684,0.39 2.727,0.39 h 6.668 c 1.031,0 3.109,0.47 3.722,-0.27 0.371,-0.47 0.246,-3.31 0.246,-3.31 0,0 0,-0.46 0.313,-0.75 v 0" /><path
         id="path1059"
         style="fill:#66a6d8;fill-opacity:1;fill-rule:nonzero;stroke:none"
         d="m 112.445,1122.11 c -38.6364,0 -62.4177,-12.4 -77.6364,-27.34 0,0 -0.2617,-0.25 -0.3945,-0.65 -0.2891,-0.76 -0.3672,-1.9 1.1992,-1.35 33.1015,13.89 69.2777,5.19 80.8007,-7.89 0.406,-0.63 0.02,-0.77 -0.453,-0.77 -11.637,-0.14 -21.3946,0.55 -42.9141,-2.46 -11.625,-1.64 -21.9883,-3.33 -30.7188,-5.6 -14.375,-3.74 -24.5937,-8.44 -30.2929,-12.22 -2.0977,-1.13 -2.26176,-1.93 -2.77348,-2.89 -0.62109,-1.89 -0.54688,-1.86 -0.94141,-3.14 -0.70703,-2.42 -1.08593,-3.96 -1.21484,-4.76 -0.23438,-1.47 1.35156,-0.98 2.17578,-0.12 1.75005,1.75 6.48825,5.94 13.46095,9.18 7.1094,3.31 18.8594,7.07 31.6211,9.43 17.0195,3.13 37.7109,5.14 56.6407,5.18 21.949,0.08 41.637,-2.21 58.082,-5.42 16.734,-3.27 29.957,-7.79 38.508,-11.97 4.015,-1.95 6.273,-3.75 8.965,-6.02 2.121,-2.17 2.25,-0.32 2.211,0.25 0,0 -0.383,2.9 -3.946,9.47 -10.933,20.09 -40.109,59.09 -102.379,59.09" /><path
         id="path1061"
         style="fill:#66a6d8;fill-opacity:1;fill-rule:nonzero;stroke:none"
         d="m 0.164063,863.648 c 0,-8.968 37.296837,-27.371 114.495937,-27.371 74.914,0 114.465,18.403 114.465,27.371 l -0.383,13.762 c 0,-0.269 -0.054,0.918 -0.164,0.602 -0.129,2.484 -4.082,2.957 -16.191,3.136 l -0.278,7.637 c 0,-0.777 -2.554,-2.445 -4.14,-3.363 -9.867,-5.684 -47.559,-14.16 -94.707,-14.16 -54.5862,0 -92.8128,11.312 -98.844,17.523 L 14.293,877 c 17.9765,-12.836 73.3203,-24.348 129.211,-18.395 1.66,0.04 2.223,0.387 3.91,-0.097 0.457,-0.153 2,-1.496 -1.043,-2.606 C 113.965,845.199 33.9414,847.59 0.0390625,873.313 l 0.1601565,-9.665" /><path
         id="path1063"
         style="fill:#66a6d8;fill-opacity:1;fill-rule:nonzero;stroke:none"
         d="m 159.859,1041.45 h 0.676 c -0.105,0.03 -0.222,0.04 -0.34,0.04 -0.125,0 -0.246,-0.01 -0.336,-0.04 v 0" /><path
         id="path1065"
         style="fill:#66a6d8;fill-opacity:1;fill-rule:nonzero;stroke:none"
         d="m 159.027,1038.57 c 0,-0.05 0.02,-0.11 0.02,-0.13 v 2.41 c 0,-0.04 -0.02,-0.08 -0.02,-0.13 v -2.15" /><path
         id="path1067"
         style="fill:#66a6d8;fill-opacity:1;fill-rule:nonzero;stroke:none"
         d="m 159.047,1038.44 v 2.41 -2.41" /><path
         id="path1069"
         style="fill:#66a6d8;fill-opacity:1;fill-rule:nonzero;stroke:none"
         d="m 138.582,1042.33 c 0.02,0 0.035,0.04 0.094,0.04 h -0.192 c 0.032,0 0.067,-0.04 0.098,-0.04 v 0" /><path
         id="path1071"
         style="fill:#66a6d8;fill-opacity:1;fill-rule:nonzero;stroke:none"
         d="m 159.047,1038.44 v 0" /><path
         id="path1073"
         style="fill:#66a6d8;fill-opacity:1;fill-rule:nonzero;stroke:none"
         d="m 160.379,1046.98 -21.102,0.02 c -1.031,0 -1.48,-0.52 -1.507,-1.52 v -2.39 c -0.012,-1.11 0.476,-1.6 1.605,-1.61 h 6.523 c 0.598,0.04 0.762,-0.25 0.79,-0.34 0.242,-0.65 -0.961,-1.18 -1.352,-1.45 l -3.231,-2.12 c -0.437,-0.26 -0.863,-0.86 -0.863,-2.02 l -0.14,-151.237 c 0.312,-2.657 4.546,-2.915 9.136,-2.883 3.875,0.008 8.465,0.215 8.946,2.812 0,0 -0.125,143.938 0.004,156.388 0.031,0.57 0.273,0.68 0.371,0.73 0.14,0.09 0.804,0.16 0.804,0.16 0.957,0.03 1.481,0.52 1.481,1.46 v 2.56 c -0.031,0.93 -0.633,1.41 -1.465,1.44 v 0" /><path
         id="path1075"
         style="fill:#66a6d8;fill-opacity:1;fill-rule:nonzero;stroke:none"
         d="m 125.711,941.781 0.488,1.004 h 1.434 l -0.024,0.938 H 98.3086 v -0.938 h 1.5625 l 0.4219,-0.93 1.758,-3.671 c 0,0 0.312,-0.332 0.719,-0.504 0.347,-0.16 1.125,-0.227 1.414,-0.227 7.699,-0.078 6.019,0 7.226,0 0.563,-0.015 1.352,-0.015 1.738,-0.473 0.25,-0.335 0.473,-1.234 -0.605,-1.933 -2.516,-1.684 -6.707,-4.43 -8.66,-5.711 -0.246,-0.133 -0.91,-0.574 -1.113,-1.121 -0.27,-0.59 -0.207,-1.047 -0.207,-1.047 v -28.426 l -2.485,-0.965 c 0,0 -0.7616,-5.675 0.102,-6.257 0.82,-0.575 24.707,-0.575 25.543,-0.04 0.804,0.543 0.097,6.395 0.097,6.395 l -2.515,0.867 v 38.164 l 2.406,4.875 v 0" /><path
         id="path1077"
         style="fill:#66a6d8;fill-opacity:1;fill-rule:nonzero;stroke:none"
         d="m 201.309,1038.73 -21.11,0.03 c -1.031,0.03 -1.484,-0.51 -1.519,-1.55 v -2.35 c 0,-1.11 0.48,-1.59 1.593,-1.62 h 6.551 c 0.59,0.04 0.754,-0.23 0.778,-0.33 0.253,-0.66 -0.95,-1.21 -1.368,-1.47 l -3.207,-2.12 c -0.461,-0.25 -0.875,-0.84 -0.867,-2.02 l -0.121,-136.355 c 0.293,-2.636 4.52,-2.875 9.125,-2.867 3.899,0 8.449,0.231 8.938,2.801 0,0 -0.137,129.051 0.015,141.491 0,0.57 0.27,0.72 0.352,0.76 0.148,0.09 0.804,0.15 0.804,0.15 0.965,0.03 1.497,0.52 1.497,1.47 v 2.56 c -0.051,0.92 -0.637,1.4 -1.461,1.42 v 0" /><path
         id="path1079"
         style="fill:#66a6d8;fill-opacity:1;fill-rule:nonzero;stroke:none"
         d="M 85.9531,1046.98 64.8516,1047 c -1.0274,0 -1.5118,-0.53 -1.5118,-1.55 v -2.36 c 0,-1.11 0.4649,-1.61 1.5821,-1.61 h 6.5469 c 0.6015,0.04 0.7617,-0.26 0.7851,-0.34 0.2539,-0.65 -0.9492,-1.2 -1.3594,-1.45 l -3.2109,-2.12 c -0.4492,-0.26 -0.8867,-0.88 -0.8672,-2.02 L 66.6836,884.281 c 0.3047,-2.636 4.5273,-2.883 9.1328,-2.851 3.8711,0 8.4492,0.215 8.9336,2.793 0,0 -0.1055,143.957 0.0313,156.377 0,0.58 0.246,0.71 0.3359,0.76 0.1562,0.09 0.8203,0.16 0.8203,0.16 0.9453,0.02 1.4727,0.52 1.4727,1.46 v 2.54 c -0.043,0.95 -0.6446,1.43 -1.4571,1.46 v 0" /><path
         id="path1081"
         style="fill:#66a6d8;fill-opacity:1;fill-rule:nonzero;stroke:none"
         d="m 44.8789,1038.35 -21.1133,0.03 c -1.0234,0 -1.4961,-0.54 -1.5039,-1.56 v -2.36 c 0,-1.11 0.461,-1.58 1.586,-1.58 l 6.5586,-0.02 c 0.5859,0.03 0.7343,-0.24 0.7695,-0.34 0.2539,-0.65 -0.9453,-1.21 -1.3672,-1.48 l -3.1914,-2.09 c -0.4766,-0.27 -0.8984,-0.88 -0.8711,-2.04 L 25.6094,890.57 c 0.289,-2.652 4.5312,-2.922 9.125,-2.906 3.8945,0 8.4531,0.254 8.9375,2.82 0,0 -0.1094,129.066 0.0273,141.496 0,0.57 0.2696,0.72 0.3477,0.76 0.1484,0.12 0.7929,0.15 0.7929,0.15 0.9649,0.02 1.504,0.5 1.504,1.47 v 2.53 c -0.0547,0.93 -0.6446,1.44 -1.4649,1.46 v 0" /><path
         id="path1083"
         style="fill:#66a6d8;fill-opacity:1;fill-rule:nonzero;stroke:none"
         d="m 1150.36,1039.2 c -14.07,39.77 -50.83,65.86 -97.45,65.86 -71.359,0 -115.824,-51.73 -115.824,-123.517 0,-77.363 55.59,-134.223 120.524,-134.223 33.78,0 75.27,11.543 104.3,63.243 h 8.13 c -5.57,-19.2 -17.1,-45.747 -27.36,-62.372 -27.37,3.813 -46.14,-11.601 -96.59,-11.601 -86.805,0 -149.172,57.297 -149.172,136.371 0,82.949 64.102,142.759 153.442,142.759 53.86,0 76.9,-17.1 90.19,-17.1 4.7,0 6.81,1.29 7.69,2.57 h 6.37 l 3.89,-61.99 h -8.14" /><path
         id="path1085"
         style="fill:#66a6d8;fill-opacity:1;fill-rule:nonzero;stroke:none"
         d="m 795.242,1109.3 v -8.11 c 34.137,-0.85 41.844,-5.56 41.844,-31.61 V 899.48 L 635.781,1109.3 H 475.082 v -8.11 c 35.481,-1.71 41.895,-8.98 41.895,-49.98 v -99.597 c 0,-72.648 -49.164,-92.75 -97.426,-92.75 -63.703,0 -97.457,34.625 -97.457,92.34 v 118.767 c 0,24.82 10.277,31.22 33.754,31.22 h 3.879 v 8.11 H 249.863 v -8.11 c 29.067,-0.44 36.762,-4.72 36.762,-32.05 V 944.313 c 0,-61.086 41.863,-107.723 123.512,-107.723 92.754,0 126.504,56.898 126.504,109.902 v 115.368 c 0,31.68 15.195,39.2 35.011,39.2 11.883,0 23.368,-3.69 32.946,-10.41 V 880.242 c 0,-19.648 -8.555,-28.633 -35.063,-28.633 h -1.699 v -8.129 h 99.199 v 8.129 c -36.34,0 -43.191,6.387 -43.191,37.168 V 1072.14 L 845.191,840.457 h 11.153 v 238.513 c 0,16.66 6.828,22.22 38.918,22.22 v 8.11 h -100.02" /></g></g></svg>